# xmcd
#
# Track frame offsets: 
#        150
#        13470
#        29858
#        43986
#        57866
#        71858
#        87169
#        104926
#        123636
#        141998
#
# Disc length: 2129 seconds
#
# Revision: 0
# Processed by: cddbd v1.5.2PL0 Copyright (c) Steve Scherf et al.
# Submitted via: ExactAudioCopyFreeDBPlugin 1.0
#
DISCID=a7084f0a
DTITLE=The Trade-Offs - Qaumariaq
DYEAR=2016
DGENRE=Blues
TTITLE0=Break like Glass
TTITLE1=Make me Lie
TTITLE2=Qaumariaq
TTITLE3=Red
TTITLE4=The Other Side
TTITLE5=The Storm
TTITLE6=Trouble So Hard
TTITLE7=Hitch a Ride
TTITLE8=Cry No More
TTITLE9=Ghost
EXTD=
EXTT0=
EXTT1=
EXTT2=
EXTT3=
EXTT4=
EXTT5=
EXTT6=
EXTT7=
EXTT8=
EXTT9=
PLAYORDER=
